<?xml version="1.0" encoding="iso-8859-1"?>
<!-- Uploaded to: SVG Repo, www.svgrepo.com, Generator: SVG Repo Mixer Tools -->
<svg height="800px" width="800px" version="1.1" id="Layer_1" xmlns="http://www.w3.org/2000/svg" xmlns:xlink="http://www.w3.org/1999/xlink" 
	 viewBox="0 0 512 512" xml:space="preserve">
<path style="fill:#003DA8;" d="M437.095,261.817v-95.518l-82.726-47.762V32.043h-31.283v86.495L256,157.268l-10.428,71.001
	L256,288.915l67.085,38.732v77.457L256,443.835l-10.428,12.875L256,479.957l98.368-56.793v-95.518l67.09-38.735l74.901,43.244
	L512,305.063L437.095,261.817z M405.812,261.823l-67.078,38.728l-67.092-38.735v-77.456l67.085-38.733l67.085,38.733v77.462H405.812
	z"/>
<path style="fill:#2F91ED;" d="M188.915,405.103v-77.457L256,288.914V157.268l-67.085-38.732V32.043h-31.283v86.495L74.906,166.3
	v95.518L0,305.063l15.642,27.091l74.9-43.244l67.09,38.735v77.457L82.726,448.35l15.642,27.091l74.905-43.248L256,479.957v-36.123
	L188.915,405.103z M173.268,300.551l-67.078-38.728v-77.462l67.085-38.733l67.085,38.733v77.456L173.268,300.551z"/>
<path style="fill:#FF0F4D;" d="M90.547,132.747l-20.855,42.583l20.855,42.583c23.518,0,42.583-19.065,42.583-42.583
	S114.064,132.747,90.547,132.747z"/>
<path style="fill:#FF6E7A;" d="M47.965,175.329c0,23.518,19.065,42.583,42.583,42.583v-85.165
	C67.029,132.747,47.965,151.812,47.965,175.329z"/>
<path style="fill:#FF0F4D;" d="M256,228.272l-20.855,42.583L256,313.437c23.518,0,42.583-19.065,42.583-42.583
	C298.583,247.337,279.518,228.272,256,228.272z"/>
<path style="fill:#FF6E7A;" d="M213.417,270.853c0,23.518,19.065,42.583,42.583,42.583v-85.165
	C232.482,228.272,213.417,247.337,213.417,270.853z"/>
<path style="fill:#FF0F4D;" d="M421.453,132.747l-20.855,42.583l20.855,42.583c23.518,0,42.583-19.065,42.583-42.583
	C464.035,151.812,444.971,132.747,421.453,132.747z"/>
<path style="fill:#FF6E7A;" d="M378.871,175.329c0,23.518,19.065,42.583,42.583,42.583v-85.165
	C397.936,132.747,378.871,151.812,378.871,175.329z"/>
<path style="fill:#FF0F4D;" d="M338.726,371.551l-20.855,42.583l20.855,42.583c23.518,0,42.583-19.065,42.583-42.583
	C381.309,390.616,362.244,371.551,338.726,371.551z"/>
<path style="fill:#FF6E7A;" d="M296.145,414.133c0,23.518,19.065,42.583,42.583,42.583V371.55
	C315.208,371.551,296.145,390.616,296.145,414.133z"/>
</svg>